<svg width="788.0" height="2039.9184017536784" viewBox="0 0 788.0 2039.9184017536784" class="keymap" xmlns="http://www.w3.org/2000/svg" xmlns:xlink="http://www.w3.org/1999/xlink">
<style>/* inherit to force styles through use tags*/
svg path {
    fill: inherit;
}
/* font and background color specifications */
svg.keymap {
    font-family: SFMono-Regular,Consolas,Liberation Mono,Menlo,monospace;
    font-size: 14px;
    font-kerning: normal;
    text-rendering: optimizeLegibility;
    fill: #24292e;
}

/* default key styling */
rect.key {
    fill: #f6f8fa;
    stroke: #c9cccf;
    stroke-width: 1;
}

/* color accent for combo boxes */
rect.combo {
    fill: #cdf;
}

/* color accent for held keys */
rect.held, rect.combo.held {
    fill: #fdd;
}

/* color accent for ghost (optional) keys */
rect.ghost, rect.combo.ghost {
    fill: #ddd;
}

text {
    text-anchor: middle;
    dominant-baseline: middle;
}

/* styling for layer labels */
text.label {
    font-weight: bold;
    text-anchor: start;
    stroke: white;
    stroke-width: 2;
    paint-order: stroke;
}

/* styling for combo tap, and key hold/shifted label text */
text.combo, text.hold, text.shifted {
    font-size: 11px;
}

text.hold {
    text-anchor: middle;
    dominant-baseline: auto;
}

text.shifted {
    text-anchor: middle;
    dominant-baseline: hanging;
}

/* styling for hold/shifted label text in combo box */
text.combo.hold, text.combo.shifted {
    font-size: 8px;
}

/* lighter symbol for transparent keys */
text.trans {
    fill: #7b7e81;
}

/* styling for combo dendrons */
path.combo {
    stroke-width: 1;
    stroke: gray;
    fill: none;
}

/* Start Tabler Icons Cleanup */
/* cannot use height/width with glyphs */
.icon-tabler > path {
    fill: inherit;
    stroke: inherit;
}
/* hide tabler's default box */
.icon-tabler > path[stroke="none"][fill="none"] {
    visibility: collapse;
}
/* End Tabler Icons Cleanup */
</style>
<g class="layer-DEF">
<text x="30.0" y="28.0" class="label">DEF:</text>
<rect rx="6.0" ry="6.0" x="32.0" y="79.0" width="52.0" height="52.0" class="key"/>
<text x="58.0" y="105.0" class="tap">Q</text>
<rect rx="6.0" ry="6.0" x="88.0" y="65.0" width="52.0" height="52.0" class="key"/>
<text x="114.0" y="91.0" class="tap">W</text>
<rect rx="6.0" ry="6.0" x="144.0" y="58.0" width="52.0" height="52.0" class="key"/>
<text x="170.0" y="84.0" class="tap">F</text>
<rect rx="6.0" ry="6.0" x="200.0" y="65.0" width="52.0" height="52.0" class="key"/>
<text x="226.0" y="91.0" class="tap">P</text>
<rect rx="6.0" ry="6.0" x="256.0" y="72.0" width="52.0" height="52.0" class="key"/>
<text x="282.0" y="98.0" class="tap">B</text>
<rect rx="6.0" ry="6.0" x="480.0" y="72.0" width="52.0" height="52.0" class="key"/>
<text x="506.0" y="98.0" class="tap">J</text>
<rect rx="6.0" ry="6.0" x="536.0" y="65.0" width="52.0" height="52.0" class="key"/>
<text x="562.0" y="91.0" class="tap">L</text>
<rect rx="6.0" ry="6.0" x="592.0" y="58.0" width="52.0" height="52.0" class="key"/>
<text x="618.0" y="84.0" class="tap">U</text>
<rect rx="6.0" ry="6.0" x="648.0" y="65.0" width="52.0" height="52.0" class="key"/>
<text x="674.0" y="91.0" class="tap">Y</text>
<rect rx="6.0" ry="6.0" x="704.0" y="79.0" width="52.0" height="52.0" class="key"/>
<text x="730.0" y="105.0" class="tap">;</text>
<rect rx="6.0" ry="6.0" x="32.0" y="135.0" width="52.0" height="52.0" class="key"/>
<text x="58.0" y="161.0" class="tap">A</text>
<rect rx="6.0" ry="6.0" x="88.0" y="121.0" width="52.0" height="52.0" class="key"/>
<text x="114.0" y="147.0" class="tap">R</text>
<rect rx="6.0" ry="6.0" x="144.0" y="114.0" width="52.0" height="52.0" class="key"/>
<text x="170.0" y="140.0" class="tap">S</text>
<rect rx="6.0" ry="6.0" x="200.0" y="121.0" width="52.0" height="52.0" class="key"/>
<text x="226.0" y="147.0" class="tap">T</text>
<rect rx="6.0" ry="6.0" x="256.0" y="128.0" width="52.0" height="52.0" class="key"/>
<text x="282.0" y="154.0" class="tap">G</text>
<rect rx="6.0" ry="6.0" x="480.0" y="128.0" width="52.0" height="52.0" class="key"/>
<text x="506.0" y="154.0" class="tap">M</text>
<rect rx="6.0" ry="6.0" x="536.0" y="121.0" width="52.0" height="52.0" class="key"/>
<text x="562.0" y="147.0" class="tap">N</text>
<rect rx="6.0" ry="6.0" x="592.0" y="114.0" width="52.0" height="52.0" class="key"/>
<text x="618.0" y="140.0" class="tap">E</text>
<rect rx="6.0" ry="6.0" x="648.0" y="121.0" width="52.0" height="52.0" class="key"/>
<text x="674.0" y="147.0" class="tap">I</text>
<rect rx="6.0" ry="6.0" x="704.0" y="135.0" width="52.0" height="52.0" class="key"/>
<text x="730.0" y="161.0" class="tap">O</text>
<rect rx="6.0" ry="6.0" x="32.0" y="191.0" width="52.0" height="52.0" class="key"/>
<text x="58.0" y="217.0" class="tap">Z</text>
<rect rx="6.0" ry="6.0" x="88.0" y="177.0" width="52.0" height="52.0" class="key"/>
<text x="114.0" y="203.0" class="tap">X</text>
<rect rx="6.0" ry="6.0" x="144.0" y="170.0" width="52.0" height="52.0" class="key"/>
<text x="170.0" y="196.0" class="tap">C</text>
<rect rx="6.0" ry="6.0" x="200.0" y="177.0" width="52.0" height="52.0" class="key"/>
<text x="226.0" y="203.0" class="tap">D</text>
<rect rx="6.0" ry="6.0" x="256.0" y="184.0" width="52.0" height="52.0" class="key"/>
<text x="282.0" y="210.0" class="tap">V</text>
<rect rx="6.0" ry="6.0" x="480.0" y="184.0" width="52.0" height="52.0" class="key"/>
<text x="506.0" y="210.0" class="tap">K</text>
<rect rx="6.0" ry="6.0" x="536.0" y="177.0" width="52.0" height="52.0" class="key"/>
<text x="562.0" y="203.0" class="tap">H</text>
<rect rx="6.0" ry="6.0" x="592.0" y="170.0" width="52.0" height="52.0" class="key"/>
<text x="618.0" y="220.0" class="hold">,</text>
<text x="618.0" y="172.0" class="shifted">&quot;</text>
<rect rx="6.0" ry="6.0" x="648.0" y="177.0" width="52.0" height="52.0" class="key"/>
<text x="674.0" y="227.0" class="hold">.</text>
<text x="674.0" y="179.0" class="shifted">&#x27;</text>
<rect rx="6.0" ry="6.0" x="704.0" y="191.0" width="52.0" height="52.0" class="key"/>
<text x="730.0" y="217.0" class="tap">/</text>
<rect rx="6.0" ry="6.0" x="172.0" y="234.84799999999996" width="52.0" height="52.0" class="key"/>
<text x="198.0" y="260.84799999999996" class="tap">Repeat</text>
<text x="198.0" y="284.84799999999996" class="hold">Ctrl</text>
<g transform="rotate(15.0, 259.59999999999997, 269.08000000000004)">
<rect rx="6.0" ry="6.0" x="233.59999999999997" y="243.08000000000004" width="52.0" height="52.0" class="key"/>
<text x="259.59999999999997" y="269.08000000000004" class="tap">NAV</text>
</g>
<g transform="rotate(30.0, 325.12, 280.28)">
<rect rx="6.0" ry="6.0" x="299.12" y="240.27999999999997" width="52.0" height="80.0" class="key"/>
<text x="325.12" y="280.28" class="tap" style="font-size: 88%">
<tspan x="325.12" dy="-0.6em">Shift</tspan><tspan x="325.12" dy="1.2em">(sticky)</tspan></text>
</g>
<g transform="rotate(-30.0, 462.88, 280.28)">
<rect rx="6.0" ry="6.0" x="436.88" y="240.27999999999997" width="52.0" height="80.0" class="key"/>
<text x="462.88" y="280.28" class="tap">Space</text>
<text x="462.88" y="318.28" class="hold">NAV</text>
</g>
<g transform="rotate(-15.0, 528.4000000000001, 269.08000000000004)">
<rect rx="6.0" ry="6.0" x="502.4000000000001" y="243.08000000000004" width="52.0" height="52.0" class="key"/>
<text x="528.4000000000001" y="269.08000000000004" class="tap">Space</text>
<text x="528.4000000000001" y="293.08000000000004" class="hold">SYM</text>
</g>
<rect rx="6.0" ry="6.0" x="564.0" y="234.84799999999996" width="52.0" height="52.0" class="key"/>
<text x="590.0" y="260.84799999999996" class="tap">Bspace</text>
<text x="590.0" y="284.84799999999996" class="hold">FUN</text>
<rect rx="6.0" ry="6.0" x="128.0" y="74.5" width="28.0" height="26.0" class="combo"/>
<text x="142.0" y="87.5" class="combo tap">Tab</text>
<rect rx="6.0" ry="6.0" x="72.0" y="197.0" width="28.0" height="26.0" class="combo"/>
<text x="86.0" y="210.0" class="combo tap">VIM</text>
<rect rx="6.0" ry="6.0" x="128.0" y="186.5" width="28.0" height="26.0" class="combo"/>
<text x="142.0" y="199.5" class="combo tap">Esc</text>
<rect rx="6.0" ry="6.0" x="632.0" y="186.5" width="28.0" height="26.0" class="combo"/>
<text x="646.0" y="199.5" class="combo tap">Ent</text>
</g>
<g class="layer-SYM">
<text x="30.0" y="358.6530669589464" class="label">SYM:</text>
<rect rx="6.0" ry="6.0" x="32.0" y="409.6530669589464" width="52.0" height="52.0" class="key"/>
<text x="58.0" y="435.6530669589464" class="tap">`</text>
<rect rx="6.0" ry="6.0" x="88.0" y="395.6530669589464" width="52.0" height="52.0" class="key"/>
<text x="114.0" y="421.6530669589464" class="tap">@</text>
<rect rx="6.0" ry="6.0" x="144.0" y="388.6530669589464" width="52.0" height="52.0" class="key"/>
<text x="170.0" y="414.6530669589464" class="tap">#</text>
<rect rx="6.0" ry="6.0" x="200.0" y="395.6530669589464" width="52.0" height="52.0" class="key"/>
<text x="226.0" y="421.6530669589464" class="tap">$</text>
<rect rx="6.0" ry="6.0" x="256.0" y="402.6530669589464" width="52.0" height="52.0" class="key"/>
<text x="282.0" y="428.6530669589464" class="tap">%</text>
<rect rx="6.0" ry="6.0" x="480.0" y="402.6530669589464" width="52.0" height="52.0" class="key"/>
<text x="506.0" y="428.6530669589464" class="tap">&amp;</text>
<rect rx="6.0" ry="6.0" x="536.0" y="395.6530669589464" width="52.0" height="52.0" class="key"/>
<text x="562.0" y="421.6530669589464" class="tap">|</text>
<rect rx="6.0" ry="6.0" x="592.0" y="388.6530669589464" width="52.0" height="52.0" class="key"/>
<text x="618.0" y="414.6530669589464" class="tap">(</text>
<rect rx="6.0" ry="6.0" x="648.0" y="395.6530669589464" width="52.0" height="52.0" class="key"/>
<text x="674.0" y="421.6530669589464" class="tap">)</text>
<rect rx="6.0" ry="6.0" x="704.0" y="409.6530669589464" width="52.0" height="52.0" class="key"/>
<text x="730.0" y="435.6530669589464" class="tap">:</text>
<rect rx="6.0" ry="6.0" x="32.0" y="465.6530669589464" width="52.0" height="52.0" class="key"/>
<text x="58.0" y="491.6530669589464" class="tap">~</text>
<rect rx="6.0" ry="6.0" x="88.0" y="451.6530669589464" width="52.0" height="52.0" class="key"/>
<text x="114.0" y="477.6530669589464" class="tap">!</text>
<rect rx="6.0" ry="6.0" x="144.0" y="444.6530669589464" width="52.0" height="52.0" class="key"/>
<text x="170.0" y="470.6530669589464" class="tap">=</text>
<rect rx="6.0" ry="6.0" x="200.0" y="451.6530669589464" width="52.0" height="52.0" class="key"/>
<text x="226.0" y="477.6530669589464" class="tap">_</text>
<rect rx="6.0" ry="6.0" x="256.0" y="458.6530669589464" width="52.0" height="52.0" class="key"/>
<text x="282.0" y="484.6530669589464" class="tap">G</text>
<rect rx="6.0" ry="6.0" x="480.0" y="458.6530669589464" width="52.0" height="52.0" class="key"/>
<text x="506.0" y="484.6530669589464" class="tap">-</text>
<rect rx="6.0" ry="6.0" x="536.0" y="451.6530669589464" width="52.0" height="52.0" class="key"/>
<text x="562.0" y="477.6530669589464" class="tap">\</text>
<rect rx="6.0" ry="6.0" x="592.0" y="444.6530669589464" width="52.0" height="52.0" class="key"/>
<text x="618.0" y="470.6530669589464" class="tap">[</text>
<rect rx="6.0" ry="6.0" x="648.0" y="451.6530669589464" width="52.0" height="52.0" class="key"/>
<text x="674.0" y="477.6530669589464" class="tap">]</text>
<rect rx="6.0" ry="6.0" x="704.0" y="465.6530669589464" width="52.0" height="52.0" class="key"/>
<text x="730.0" y="491.6530669589464" class="tap">&#x27;</text>
<rect rx="6.0" ry="6.0" x="32.0" y="521.6530669589464" width="52.0" height="52.0" class="key"/>
<text x="58.0" y="547.6530669589464" class="tap">=</text>
<rect rx="6.0" ry="6.0" x="88.0" y="507.6530669589464" width="52.0" height="52.0" class="key"/>
<text x="114.0" y="533.6530669589464" class="tap">&lt;</text>
<rect rx="6.0" ry="6.0" x="144.0" y="500.6530669589464" width="52.0" height="52.0" class="key"/>
<text x="170.0" y="526.6530669589464" class="tap">&gt;</text>
<rect rx="6.0" ry="6.0" x="200.0" y="507.6530669589464" width="52.0" height="52.0" class="key"/>
<text x="226.0" y="533.6530669589464" class="tap">D</text>
<rect rx="6.0" ry="6.0" x="256.0" y="514.6530669589464" width="52.0" height="52.0" class="key"/>
<text x="282.0" y="540.6530669589464" class="tap">^</text>
<rect rx="6.0" ry="6.0" x="480.0" y="514.6530669589464" width="52.0" height="52.0" class="key"/>
<text x="506.0" y="540.6530669589464" class="tap">+</text>
<rect rx="6.0" ry="6.0" x="536.0" y="507.6530669589464" width="52.0" height="52.0" class="key"/>
<text x="562.0" y="533.6530669589464" class="tap">*</text>
<rect rx="6.0" ry="6.0" x="592.0" y="500.6530669589464" width="52.0" height="52.0" class="key"/>
<text x="618.0" y="526.6530669589464" class="tap">{</text>
<rect rx="6.0" ry="6.0" x="648.0" y="507.6530669589464" width="52.0" height="52.0" class="key"/>
<text x="674.0" y="533.6530669589464" class="tap">}</text>
<rect rx="6.0" ry="6.0" x="704.0" y="521.6530669589464" width="52.0" height="52.0" class="key"/>
<text x="730.0" y="547.6530669589464" class="tap">&quot;</text>
<rect rx="6.0" ry="6.0" x="172.0" y="565.5010669589464" width="52.0" height="52.0" class="key"/>
<text x="198.0" y="591.5010669589464" class="tap">Repeat</text>
<text x="198.0" y="615.5010669589464" class="hold">Ctrl</text>
<g transform="rotate(15.0, 259.59999999999997, 599.7330669589464)">
<rect rx="6.0" ry="6.0" x="233.59999999999997" y="573.7330669589464" width="52.0" height="52.0" class="key"/>
<text x="259.59999999999997" y="599.7330669589464" class="tap">NUM</text>
</g>
<g transform="rotate(30.0, 325.12, 610.9330669589464)">
<rect rx="6.0" ry="6.0" x="299.12" y="570.9330669589464" width="52.0" height="80.0" class="key"/>
<text x="325.12" y="610.9330669589464" class="tap" style="font-size: 88%">
<tspan x="325.12" dy="-0.6em">Shift</tspan><tspan x="325.12" dy="1.2em">(sticky)</tspan></text>
</g>
<g transform="rotate(-30.0, 462.88, 610.9330669589464)">
<rect rx="6.0" ry="6.0" x="436.88" y="570.9330669589464" width="52.0" height="80.0" class="trans key"/>
</g>
<g transform="rotate(-15.0, 528.4000000000001, 599.7330669589464)">
<rect rx="6.0" ry="6.0" x="502.4000000000001" y="573.7330669589464" width="52.0" height="52.0" class="held key"/>
</g>
<rect rx="6.0" ry="6.0" x="564.0" y="565.5010669589464" width="52.0" height="52.0" class="trans key"/>
</g>
<g class="layer-NAV">
<text x="30.0" y="689.3061339178928" class="label">NAV:</text>
<rect rx="6.0" ry="6.0" x="32.0" y="740.3061339178928" width="52.0" height="52.0" class="key"/>
<text x="58.0" y="766.3061339178928" class="tap">
<tspan x="58.0" dy="-0.6em">Win</tspan><tspan x="58.0" dy="1.2em">Next</tspan></text>
<rect rx="6.0" ry="6.0" x="88.0" y="726.3061339178928" width="52.0" height="52.0" class="key"/>
<text x="114.0" y="752.3061339178928" class="tap">
<tspan x="114.0" dy="-0.6em">App</tspan><tspan x="114.0" dy="1.2em">Next</tspan></text>
<rect rx="6.0" ry="6.0" x="144.0" y="719.3061339178928" width="52.0" height="52.0" class="key"/>
<text x="170.0" y="745.3061339178928" class="tap">
<tspan x="170.0" dy="-0.6em">Tab</tspan><tspan x="170.0" dy="1.2em">Prev</tspan></text>
<rect rx="6.0" ry="6.0" x="200.0" y="726.3061339178928" width="52.0" height="52.0" class="key"/>
<text x="226.0" y="752.3061339178928" class="tap">
<tspan x="226.0" dy="-0.6em">Tab</tspan><tspan x="226.0" dy="1.2em">Next</tspan></text>
<rect rx="6.0" ry="6.0" x="256.0" y="733.3061339178928" width="52.0" height="52.0" class="key"/>
<text x="282.0" y="759.3061339178928" class="tap">
<tspan x="282.0" dy="-0.6em">Tab</tspan><tspan x="282.0" dy="1.2em">New</tspan></text>
<rect rx="6.0" ry="6.0" x="480.0" y="733.3061339178928" width="52.0" height="52.0" class="key"/>
<text x="506.0" y="759.3061339178928" class="tap">Home</text>
<rect rx="6.0" ry="6.0" x="536.0" y="726.3061339178928" width="52.0" height="52.0" class="key"/>
<text x="562.0" y="752.3061339178928" class="tap">
<tspan x="562.0" dy="-0.6em">Page</tspan><tspan x="562.0" dy="1.2em">Down</tspan></text>
<rect rx="6.0" ry="6.0" x="592.0" y="719.3061339178928" width="52.0" height="52.0" class="key"/>
<text x="618.0" y="745.3061339178928" class="tap">
<tspan x="618.0" dy="-0.6em">Page</tspan><tspan x="618.0" dy="1.2em">Up</tspan></text>
<rect rx="6.0" ry="6.0" x="648.0" y="726.3061339178928" width="52.0" height="52.0" class="key"/>
<text x="674.0" y="752.3061339178928" class="tap">End</text>
<rect rx="6.0" ry="6.0" x="704.0" y="740.3061339178928" width="52.0" height="52.0" class="key"/>
<text x="730.0" y="766.3061339178928" class="tap">
<tspan x="730.0" dy="-0.6em">Desk</tspan><tspan x="730.0" dy="1.2em">Prev</tspan></text>
<rect rx="6.0" ry="6.0" x="32.0" y="796.3061339178928" width="52.0" height="52.0" class="key"/>
<text x="58.0" y="822.3061339178928" class="tap">Shift</text>
<rect rx="6.0" ry="6.0" x="88.0" y="782.3061339178928" width="52.0" height="52.0" class="key"/>
<text x="114.0" y="808.3061339178928" class="tap">Ctrl</text>
<rect rx="6.0" ry="6.0" x="144.0" y="775.3061339178928" width="52.0" height="52.0" class="key"/>
<text x="170.0" y="801.3061339178928" class="tap">Alt</text>
<rect rx="6.0" ry="6.0" x="200.0" y="782.3061339178928" width="52.0" height="52.0" class="key"/>
<text x="226.0" y="808.3061339178928" class="tap">Gui</text>
<rect rx="6.0" ry="6.0" x="256.0" y="789.3061339178928" width="52.0" height="52.0" class="key"/>
<text x="282.0" y="815.3061339178928" class="tap">
<tspan x="282.0" dy="-0.6em">Win</tspan><tspan x="282.0" dy="1.2em">Close</tspan></text>
<rect rx="6.0" ry="6.0" x="480.0" y="789.3061339178928" width="52.0" height="52.0" class="key"/>
<text x="506.0" y="815.3061339178928" class="tap">Left</text>
<rect rx="6.0" ry="6.0" x="536.0" y="782.3061339178928" width="52.0" height="52.0" class="key"/>
<text x="562.0" y="808.3061339178928" class="tap">Down</text>
<rect rx="6.0" ry="6.0" x="592.0" y="775.3061339178928" width="52.0" height="52.0" class="key"/>
<text x="618.0" y="801.3061339178928" class="tap">Up</text>
<rect rx="6.0" ry="6.0" x="648.0" y="782.3061339178928" width="52.0" height="52.0" class="key"/>
<text x="674.0" y="808.3061339178928" class="tap">Right</text>
<rect rx="6.0" ry="6.0" x="704.0" y="796.3061339178928" width="52.0" height="52.0" class="key"/>
<text x="730.0" y="822.3061339178928" class="tap">Enter</text>
<rect rx="6.0" ry="6.0" x="32.0" y="852.3061339178928" width="52.0" height="52.0" class="key"/>
<text x="58.0" y="878.3061339178928" class="tap">Undo</text>
<rect rx="6.0" ry="6.0" x="88.0" y="838.3061339178928" width="52.0" height="52.0" class="key"/>
<text x="114.0" y="864.3061339178928" class="tap">Redo</text>
<rect rx="6.0" ry="6.0" x="144.0" y="831.3061339178928" width="52.0" height="52.0" class="key"/>
<text x="170.0" y="857.3061339178928" class="tap">Copy</text>
<rect rx="6.0" ry="6.0" x="200.0" y="838.3061339178928" width="52.0" height="52.0" class="key"/>
<text x="226.0" y="864.3061339178928" class="tap">Paste</text>
<rect rx="6.0" ry="6.0" x="256.0" y="845.3061339178928" width="52.0" height="52.0" class="key"/>
<text x="282.0" y="871.3061339178928" class="tap" style="font-size: 88%">
<tspan x="282.0" dy="-0.6em">VIM</tspan><tspan x="282.0" dy="1.2em">(toggle)</tspan></text>
<rect rx="6.0" ry="6.0" x="480.0" y="845.3061339178928" width="52.0" height="52.0" class="key"/>
<text x="506.0" y="871.3061339178928" class="tap">
<tspan x="506.0" dy="-0.6em">Page</tspan><tspan x="506.0" dy="1.2em">Prev</tspan></text>
<rect rx="6.0" ry="6.0" x="536.0" y="838.3061339178928" width="52.0" height="52.0" class="key"/>
<text x="562.0" y="864.3061339178928" class="tap">Delete</text>
<rect rx="6.0" ry="6.0" x="592.0" y="831.3061339178928" width="52.0" height="52.0" class="key"/>
<rect rx="6.0" ry="6.0" x="648.0" y="838.3061339178928" width="52.0" height="52.0" class="key"/>
<text x="674.0" y="864.3061339178928" class="tap">
<tspan x="674.0" dy="-0.6em">Page</tspan><tspan x="674.0" dy="1.2em">Next</tspan></text>
<rect rx="6.0" ry="6.0" x="704.0" y="852.3061339178928" width="52.0" height="52.0" class="key"/>
<text x="730.0" y="878.3061339178928" class="tap">
<tspan x="730.0" dy="-0.6em">Desk</tspan><tspan x="730.0" dy="1.2em">Next</tspan></text>
<rect rx="6.0" ry="6.0" x="172.0" y="896.1541339178928" width="52.0" height="52.0" class="key"/>
<text x="198.0" y="922.1541339178928" class="tap" style="font-size: 88%">
<tspan x="198.0" dy="-0.6em">SYS</tspan><tspan x="198.0" dy="1.2em">(sticky)</tspan></text>
<g transform="rotate(15.0, 259.59999999999997, 930.3861339178928)">
<rect rx="6.0" ry="6.0" x="233.59999999999997" y="904.3861339178928" width="52.0" height="52.0" class="held key"/>
</g>
<g transform="rotate(30.0, 325.12, 941.5861339178928)">
<rect rx="6.0" ry="6.0" x="299.12" y="901.5861339178928" width="52.0" height="80.0" class="trans key"/>
</g>
<g transform="rotate(-30.0, 462.88, 941.5861339178928)">
<rect rx="6.0" ry="6.0" x="436.88" y="901.5861339178928" width="52.0" height="80.0" class="key"/>
<text x="462.88" y="941.5861339178928" class="tap">Space</text>
<text x="462.88" y="979.5861339178928" class="hold">MOU</text>
</g>
<g transform="rotate(-15.0, 528.4000000000001, 930.3861339178928)">
<rect rx="6.0" ry="6.0" x="502.4000000000001" y="904.3861339178928" width="52.0" height="52.0" class="key"/>
<text x="528.4000000000001" y="930.3861339178928" class="tap">Space</text>
<text x="528.4000000000001" y="954.3861339178928" class="hold">NUM</text>
</g>
<rect rx="6.0" ry="6.0" x="564.0" y="896.1541339178928" width="52.0" height="52.0" class="key"/>
<text x="590.0" y="922.1541339178928" class="tap">Bspace</text>
<text x="590.0" y="946.1541339178928" class="hold">FUN</text>
</g>
<g class="layer-NUM">
<text x="30.0" y="1019.9592008768392" class="label">NUM:</text>
<rect rx="6.0" ry="6.0" x="32.0" y="1070.959200876839" width="52.0" height="52.0" class="key"/>
<text x="58.0" y="1096.959200876839" class="tap">Shift</text>
<rect rx="6.0" ry="6.0" x="88.0" y="1056.959200876839" width="52.0" height="52.0" class="key"/>
<text x="114.0" y="1082.959200876839" class="tap">Ctrl</text>
<rect rx="6.0" ry="6.0" x="144.0" y="1049.959200876839" width="52.0" height="52.0" class="key"/>
<text x="170.0" y="1075.959200876839" class="tap">Alt</text>
<rect rx="6.0" ry="6.0" x="200.0" y="1056.959200876839" width="52.0" height="52.0" class="key"/>
<text x="226.0" y="1082.959200876839" class="tap">Gui</text>
<rect rx="6.0" ry="6.0" x="256.0" y="1063.959200876839" width="52.0" height="52.0" class="key"/>
<text x="282.0" y="1089.959200876839" class="tap">%</text>
<rect rx="6.0" ry="6.0" x="480.0" y="1063.959200876839" width="52.0" height="52.0" class="key"/>
<text x="506.0" y="1089.959200876839" class="tap">-</text>
<rect rx="6.0" ry="6.0" x="536.0" y="1056.959200876839" width="52.0" height="52.0" class="key"/>
<text x="562.0" y="1082.959200876839" class="tap">Gui</text>
<rect rx="6.0" ry="6.0" x="592.0" y="1049.959200876839" width="52.0" height="52.0" class="key"/>
<text x="618.0" y="1075.959200876839" class="tap">Alt</text>
<rect rx="6.0" ry="6.0" x="648.0" y="1056.959200876839" width="52.0" height="52.0" class="key"/>
<text x="674.0" y="1082.959200876839" class="tap">Ctrl</text>
<rect rx="6.0" ry="6.0" x="704.0" y="1070.959200876839" width="52.0" height="52.0" class="key"/>
<text x="730.0" y="1096.959200876839" class="tap">Shift</text>
<rect rx="6.0" ry="6.0" x="32.0" y="1126.959200876839" width="52.0" height="52.0" class="key"/>
<text x="58.0" y="1152.959200876839" class="tap">6</text>
<rect rx="6.0" ry="6.0" x="88.0" y="1112.959200876839" width="52.0" height="52.0" class="key"/>
<text x="114.0" y="1138.959200876839" class="tap">4</text>
<rect rx="6.0" ry="6.0" x="144.0" y="1105.959200876839" width="52.0" height="52.0" class="key"/>
<text x="170.0" y="1131.959200876839" class="tap">2</text>
<rect rx="6.0" ry="6.0" x="200.0" y="1112.959200876839" width="52.0" height="52.0" class="key"/>
<text x="226.0" y="1138.959200876839" class="tap">0</text>
<rect rx="6.0" ry="6.0" x="256.0" y="1119.959200876839" width="52.0" height="52.0" class="key"/>
<text x="282.0" y="1145.959200876839" class="tap">8</text>
<rect rx="6.0" ry="6.0" x="480.0" y="1119.959200876839" width="52.0" height="52.0" class="key"/>
<text x="506.0" y="1145.959200876839" class="tap">9</text>
<rect rx="6.0" ry="6.0" x="536.0" y="1112.959200876839" width="52.0" height="52.0" class="key"/>
<text x="562.0" y="1138.959200876839" class="tap">1</text>
<rect rx="6.0" ry="6.0" x="592.0" y="1105.959200876839" width="52.0" height="52.0" class="key"/>
<text x="618.0" y="1131.959200876839" class="tap">3</text>
<rect rx="6.0" ry="6.0" x="648.0" y="1112.959200876839" width="52.0" height="52.0" class="key"/>
<text x="674.0" y="1138.959200876839" class="tap">5</text>
<rect rx="6.0" ry="6.0" x="704.0" y="1126.959200876839" width="52.0" height="52.0" class="key"/>
<text x="730.0" y="1152.959200876839" class="tap">7</text>
<rect rx="6.0" ry="6.0" x="32.0" y="1182.959200876839" width="52.0" height="52.0" class="key"/>
<text x="58.0" y="1208.959200876839" class="tap">=</text>
<rect rx="6.0" ry="6.0" x="88.0" y="1168.959200876839" width="52.0" height="52.0" class="key"/>
<text x="114.0" y="1194.959200876839" class="tap">&lt;</text>
<rect rx="6.0" ry="6.0" x="144.0" y="1161.959200876839" width="52.0" height="52.0" class="key"/>
<text x="170.0" y="1187.959200876839" class="tap">&gt;</text>
<rect rx="6.0" ry="6.0" x="200.0" y="1168.959200876839" width="52.0" height="52.0" class="key"/>
<text x="226.0" y="1194.959200876839" class="tap">Space</text>
<rect rx="6.0" ry="6.0" x="256.0" y="1175.959200876839" width="52.0" height="52.0" class="key"/>
<text x="282.0" y="1201.959200876839" class="tap">^</text>
<rect rx="6.0" ry="6.0" x="480.0" y="1175.959200876839" width="52.0" height="52.0" class="key"/>
<text x="506.0" y="1201.959200876839" class="tap">+</text>
<rect rx="6.0" ry="6.0" x="536.0" y="1168.959200876839" width="52.0" height="52.0" class="key"/>
<text x="562.0" y="1194.959200876839" class="tap">*</text>
<rect rx="6.0" ry="6.0" x="592.0" y="1161.959200876839" width="52.0" height="52.0" class="key"/>
<text x="618.0" y="1187.959200876839" class="tap">,</text>
<rect rx="6.0" ry="6.0" x="648.0" y="1168.959200876839" width="52.0" height="52.0" class="key"/>
<text x="674.0" y="1194.959200876839" class="tap">.</text>
<rect rx="6.0" ry="6.0" x="704.0" y="1182.959200876839" width="52.0" height="52.0" class="key"/>
<text x="730.0" y="1208.959200876839" class="tap">/</text>
<rect rx="6.0" ry="6.0" x="172.0" y="1226.807200876839" width="52.0" height="52.0" class="trans key"/>
<g transform="rotate(15.0, 259.59999999999997, 1261.039200876839)">
<rect rx="6.0" ry="6.0" x="233.59999999999997" y="1235.039200876839" width="52.0" height="52.0" class="held key"/>
</g>
<g transform="rotate(30.0, 325.12, 1272.239200876839)">
<rect rx="6.0" ry="6.0" x="299.12" y="1232.239200876839" width="52.0" height="80.0" class="trans key"/>
</g>
<g transform="rotate(-30.0, 462.88, 1272.239200876839)">
<rect rx="6.0" ry="6.0" x="436.88" y="1232.239200876839" width="52.0" height="80.0" class="trans key"/>
</g>
<g transform="rotate(-15.0, 528.4000000000001, 1261.039200876839)">
<rect rx="6.0" ry="6.0" x="502.4000000000001" y="1235.039200876839" width="52.0" height="52.0" class="held key"/>
</g>
<rect rx="6.0" ry="6.0" x="564.0" y="1226.807200876839" width="52.0" height="52.0" class="trans key"/>
<rect rx="6.0" ry="6.0" x="632.0" y="1066.459200876839" width="28.0" height="26.0" class="combo"/>
<text x="646.0" y="1079.459200876839" class="combo tap">Bsp</text>
</g>
<g class="layer-FUN">
<text x="30.0" y="1350.6122678357856" class="label">FUN:</text>
<rect rx="6.0" ry="6.0" x="32.0" y="1401.6122678357856" width="52.0" height="52.0" class="key"/>
<text x="58.0" y="1427.6122678357856" class="tap">F6</text>
<rect rx="6.0" ry="6.0" x="88.0" y="1387.6122678357856" width="52.0" height="52.0" class="key"/>
<text x="114.0" y="1413.6122678357856" class="tap">F4</text>
<rect rx="6.0" ry="6.0" x="144.0" y="1380.6122678357856" width="52.0" height="52.0" class="key"/>
<text x="170.0" y="1406.6122678357856" class="tap">F2</text>
<rect rx="6.0" ry="6.0" x="200.0" y="1387.6122678357856" width="52.0" height="52.0" class="key"/>
<text x="226.0" y="1413.6122678357856" class="tap">F10</text>
<rect rx="6.0" ry="6.0" x="256.0" y="1394.6122678357856" width="52.0" height="52.0" class="key"/>
<text x="282.0" y="1420.6122678357856" class="tap">F8</text>
<rect rx="6.0" ry="6.0" x="480.0" y="1394.6122678357856" width="52.0" height="52.0" class="key"/>
<text x="506.0" y="1420.6122678357856" class="tap">F9</text>
<rect rx="6.0" ry="6.0" x="536.0" y="1387.6122678357856" width="52.0" height="52.0" class="key"/>
<text x="562.0" y="1413.6122678357856" class="tap">F1</text>
<rect rx="6.0" ry="6.0" x="592.0" y="1380.6122678357856" width="52.0" height="52.0" class="key"/>
<text x="618.0" y="1406.6122678357856" class="tap">F3</text>
<rect rx="6.0" ry="6.0" x="648.0" y="1387.6122678357856" width="52.0" height="52.0" class="key"/>
<text x="674.0" y="1413.6122678357856" class="tap">F5</text>
<rect rx="6.0" ry="6.0" x="704.0" y="1401.6122678357856" width="52.0" height="52.0" class="key"/>
<text x="730.0" y="1427.6122678357856" class="tap">F7</text>
<rect rx="6.0" ry="6.0" x="32.0" y="1457.6122678357856" width="52.0" height="52.0" class="key"/>
<text x="58.0" y="1483.6122678357856" class="tap">Shift</text>
<rect rx="6.0" ry="6.0" x="88.0" y="1443.6122678357856" width="52.0" height="52.0" class="key"/>
<text x="114.0" y="1469.6122678357856" class="tap">Ctrl</text>
<rect rx="6.0" ry="6.0" x="144.0" y="1436.6122678357856" width="52.0" height="52.0" class="key"/>
<text x="170.0" y="1462.6122678357856" class="tap">Alt</text>
<rect rx="6.0" ry="6.0" x="200.0" y="1443.6122678357856" width="52.0" height="52.0" class="key"/>
<text x="226.0" y="1469.6122678357856" class="tap">Gui</text>
<rect rx="6.0" ry="6.0" x="256.0" y="1450.6122678357856" width="52.0" height="52.0" class="key"/>
<text x="282.0" y="1476.6122678357856" class="tap">F12</text>
<rect rx="6.0" ry="6.0" x="480.0" y="1450.6122678357856" width="52.0" height="52.0" class="key"/>
<text x="506.0" y="1476.6122678357856" class="tap">F11</text>
<rect rx="6.0" ry="6.0" x="536.0" y="1443.6122678357856" width="52.0" height="52.0" class="key"/>
<text x="562.0" y="1469.6122678357856" class="tap">Gui</text>
<rect rx="6.0" ry="6.0" x="592.0" y="1436.6122678357856" width="52.0" height="52.0" class="key"/>
<text x="618.0" y="1462.6122678357856" class="tap">Alt</text>
<rect rx="6.0" ry="6.0" x="648.0" y="1443.6122678357856" width="52.0" height="52.0" class="key"/>
<text x="674.0" y="1469.6122678357856" class="tap">Ctrl</text>
<rect rx="6.0" ry="6.0" x="704.0" y="1457.6122678357856" width="52.0" height="52.0" class="key"/>
<text x="730.0" y="1483.6122678357856" class="tap">Shift</text>
<rect rx="6.0" ry="6.0" x="32.0" y="1513.6122678357856" width="52.0" height="52.0" class="key"/>
<text x="58.0" y="1539.6122678357856" class="tap">
<tspan x="58.0" dy="-0.6em">Bright</tspan><tspan x="58.0" dy="1.2em">Down</tspan></text>
<rect rx="6.0" ry="6.0" x="88.0" y="1499.6122678357856" width="52.0" height="52.0" class="key"/>
<text x="114.0" y="1525.6122678357856" class="tap">
<tspan x="114.0" dy="-0.6em">Bright</tspan><tspan x="114.0" dy="1.2em">Up</tspan></text>
<rect rx="6.0" ry="6.0" x="144.0" y="1492.6122678357856" width="52.0" height="52.0" class="trans key"/>
<rect rx="6.0" ry="6.0" x="200.0" y="1499.6122678357856" width="52.0" height="52.0" class="trans key"/>
<rect rx="6.0" ry="6.0" x="256.0" y="1506.6122678357856" width="52.0" height="52.0" class="trans key"/>
<rect rx="6.0" ry="6.0" x="480.0" y="1506.6122678357856" width="52.0" height="52.0" class="key"/>
<text x="506.0" y="1532.6122678357856" class="tap">Prev</text>
<rect rx="6.0" ry="6.0" x="536.0" y="1499.6122678357856" width="52.0" height="52.0" class="key"/>
<text x="562.0" y="1525.6122678357856" class="tap">Play</text>
<rect rx="6.0" ry="6.0" x="592.0" y="1492.6122678357856" width="52.0" height="52.0" class="key"/>
<text x="618.0" y="1518.6122678357856" class="tap">Next</text>
<rect rx="6.0" ry="6.0" x="648.0" y="1499.6122678357856" width="52.0" height="52.0" class="key"/>
<text x="674.0" y="1525.6122678357856" class="tap">
<tspan x="674.0" dy="-0.6em">Vol</tspan><tspan x="674.0" dy="1.2em">Down</tspan></text>
<rect rx="6.0" ry="6.0" x="704.0" y="1513.6122678357856" width="52.0" height="52.0" class="key"/>
<text x="730.0" y="1539.6122678357856" class="tap">
<tspan x="730.0" dy="-0.6em">Vol</tspan><tspan x="730.0" dy="1.2em">Up</tspan></text>
<rect rx="6.0" ry="6.0" x="172.0" y="1557.4602678357855" width="52.0" height="52.0" class="trans key"/>
<g transform="rotate(15.0, 259.59999999999997, 1591.6922678357855)">
<rect rx="6.0" ry="6.0" x="233.59999999999997" y="1565.6922678357855" width="52.0" height="52.0" class="trans key"/>
</g>
<g transform="rotate(30.0, 325.12, 1602.8922678357856)">
<rect rx="6.0" ry="6.0" x="299.12" y="1562.8922678357856" width="52.0" height="80.0" class="trans key"/>
</g>
<g transform="rotate(-30.0, 462.88, 1602.8922678357856)">
<rect rx="6.0" ry="6.0" x="436.88" y="1562.8922678357856" width="52.0" height="80.0" class="key"/>
<text x="462.88" y="1602.8922678357856" class="tap">Mute</text>
</g>
<g transform="rotate(-15.0, 528.4000000000001, 1591.6922678357855)">
<rect rx="6.0" ry="6.0" x="502.4000000000001" y="1565.6922678357855" width="52.0" height="52.0" class="trans key"/>
</g>
<rect rx="6.0" ry="6.0" x="564.0" y="1557.4602678357855" width="52.0" height="52.0" class="held key"/>
<rect rx="6.0" ry="6.0" x="632.0" y="1397.1122678357856" width="28.0" height="26.0" class="combo"/>
<text x="646.0" y="1410.1122678357856" class="combo tap">Bsp</text>
</g>
<g class="layer-SYS">
<text x="30.0" y="1681.265334794732" class="label">SYS:</text>
<rect rx="6.0" ry="6.0" x="32.0" y="1732.265334794732" width="52.0" height="52.0" class="key"/>
<text x="58.0" y="1758.265334794732" class="tap">
<tspan x="58.0" dy="-0.6em">BT</tspan><tspan x="58.0" dy="1.2em">Clear</tspan></text>
<rect rx="6.0" ry="6.0" x="88.0" y="1718.265334794732" width="52.0" height="52.0" class="key"/>
<rect rx="6.0" ry="6.0" x="144.0" y="1711.265334794732" width="52.0" height="52.0" class="key"/>
<text x="170.0" y="1737.265334794732" class="tap">DEF</text>
<rect rx="6.0" ry="6.0" x="200.0" y="1718.265334794732" width="52.0" height="52.0" class="key"/>
<text x="226.0" y="1744.265334794732" class="tap">
<tspan x="226.0" dy="-0.6em">DEF</tspan><tspan x="226.0" dy="1.2em">OSX</tspan></text>
<rect rx="6.0" ry="6.0" x="256.0" y="1725.265334794732" width="52.0" height="52.0" class="key"/>
<text x="282.0" y="1751.265334794732" class="tap" style="font-size: 88%">
<tspan x="282.0" dy="-0.6em">QWERTY</tspan><tspan x="282.0" dy="1.2em">(toggle)</tspan></text>
<rect rx="6.0" ry="6.0" x="480.0" y="1725.265334794732" width="52.0" height="52.0" class="key"/>
<rect rx="6.0" ry="6.0" x="536.0" y="1718.265334794732" width="52.0" height="52.0" class="key"/>
<rect rx="6.0" ry="6.0" x="592.0" y="1711.265334794732" width="52.0" height="52.0" class="key"/>
<rect rx="6.0" ry="6.0" x="648.0" y="1718.265334794732" width="52.0" height="52.0" class="key"/>
<rect rx="6.0" ry="6.0" x="704.0" y="1732.265334794732" width="52.0" height="52.0" class="key"/>
<rect rx="6.0" ry="6.0" x="32.0" y="1788.265334794732" width="52.0" height="52.0" class="key"/>
<text x="58.0" y="1814.265334794732" class="tap">BT3</text>
<rect rx="6.0" ry="6.0" x="88.0" y="1774.265334794732" width="52.0" height="52.0" class="key"/>
<text x="114.0" y="1800.265334794732" class="tap">BT2</text>
<rect rx="6.0" ry="6.0" x="144.0" y="1767.265334794732" width="52.0" height="52.0" class="key"/>
<text x="170.0" y="1793.265334794732" class="tap">
<tspan x="170.0" dy="-0.6em">PC</tspan><tspan x="170.0" dy="1.2em">(BT1)</tspan></text>
<rect rx="6.0" ry="6.0" x="200.0" y="1774.265334794732" width="52.0" height="52.0" class="key"/>
<text x="226.0" y="1800.265334794732" class="tap">
<tspan x="226.0" dy="-0.6em">Mac</tspan><tspan x="226.0" dy="1.2em">(BT0)</tspan></text>
<rect rx="6.0" ry="6.0" x="256.0" y="1781.265334794732" width="52.0" height="52.0" class="key"/>
<text x="282.0" y="1807.265334794732" class="tap">Reset</text>
<rect rx="6.0" ry="6.0" x="480.0" y="1781.265334794732" width="52.0" height="52.0" class="key"/>
<text x="506.0" y="1807.265334794732" class="tap">Reset</text>
<rect rx="6.0" ry="6.0" x="536.0" y="1774.265334794732" width="52.0" height="52.0" class="key"/>
<rect rx="6.0" ry="6.0" x="592.0" y="1767.265334794732" width="52.0" height="52.0" class="key"/>
<rect rx="6.0" ry="6.0" x="648.0" y="1774.265334794732" width="52.0" height="52.0" class="key"/>
<rect rx="6.0" ry="6.0" x="704.0" y="1788.265334794732" width="52.0" height="52.0" class="key"/>
<rect rx="6.0" ry="6.0" x="32.0" y="1844.265334794732" width="52.0" height="52.0" class="key"/>
<text x="58.0" y="1870.265334794732" class="tap">BT4</text>
<rect rx="6.0" ry="6.0" x="88.0" y="1830.265334794732" width="52.0" height="52.0" class="key"/>
<rect rx="6.0" ry="6.0" x="144.0" y="1823.265334794732" width="52.0" height="52.0" class="key"/>
<rect rx="6.0" ry="6.0" x="200.0" y="1830.265334794732" width="52.0" height="52.0" class="key"/>
<rect rx="6.0" ry="6.0" x="256.0" y="1837.265334794732" width="52.0" height="52.0" class="key"/>
<rect rx="6.0" ry="6.0" x="480.0" y="1837.265334794732" width="52.0" height="52.0" class="key"/>
<rect rx="6.0" ry="6.0" x="536.0" y="1830.265334794732" width="52.0" height="52.0" class="key"/>
<rect rx="6.0" ry="6.0" x="592.0" y="1823.265334794732" width="52.0" height="52.0" class="key"/>
<rect rx="6.0" ry="6.0" x="648.0" y="1830.265334794732" width="52.0" height="52.0" class="key"/>
<rect rx="6.0" ry="6.0" x="704.0" y="1844.265334794732" width="52.0" height="52.0" class="key"/>
<rect rx="6.0" ry="6.0" x="172.0" y="1888.113334794732" width="52.0" height="52.0" class="trans key"/>
<g transform="rotate(15.0, 259.59999999999997, 1922.345334794732)">
<rect rx="6.0" ry="6.0" x="233.59999999999997" y="1896.345334794732" width="52.0" height="52.0" class="trans key"/>
</g>
<g transform="rotate(30.0, 325.12, 1933.545334794732)">
<rect rx="6.0" ry="6.0" x="299.12" y="1893.545334794732" width="52.0" height="80.0" class="trans key"/>
</g>
<g transform="rotate(-30.0, 462.88, 1933.545334794732)">
<rect rx="6.0" ry="6.0" x="436.88" y="1893.545334794732" width="52.0" height="80.0" class="trans key"/>
</g>
<g transform="rotate(-15.0, 528.4000000000001, 1922.345334794732)">
<rect rx="6.0" ry="6.0" x="502.4000000000001" y="1896.345334794732" width="52.0" height="52.0" class="trans key"/>
</g>
<rect rx="6.0" ry="6.0" x="564.0" y="1888.113334794732" width="52.0" height="52.0" class="trans key"/>
</g>
</svg>
